<?xml version="1.0" encoding="UTF-8" ?>
<!DOCTYPE svg PUBLIC "-//W3C//DTD SVG 1.1//EN" "http://www.w3.org/Graphics/SVG/1.1/DTD/svg11.dtd">
<svg width="558pt" height="558pt" viewBox="0 0 558 558" version="1.1" xmlns="http://www.w3.org/2000/svg">
<path fill="#222222" d=" M 0.00 0.00 L 558.00 0.00 L 558.00 558.00 L 0.00 558.00 L 0.00 0.00 Z" />
<path fill="#466770" d=" M 255.66 74.92 C 272.15 82.65 288.58 90.52 305.12 98.16 C 318.95 135.89 332.74 173.63 346.54 211.37 C 332.90 211.51 319.27 211.39 305.64 211.44 C 288.88 165.97 272.18 120.47 255.66 74.92 Z" />
<path fill="#df8424" d=" M 200.14 217.61 C 216.55 170.69 232.94 123.78 249.36 76.87 C 266.60 123.90 283.83 170.95 301.05 218.00 C 350.70 217.85 400.34 217.74 449.98 217.57 C 410.03 247.38 370.07 277.16 330.17 307.03 C 345.49 357.02 360.84 407.02 376.05 457.05 C 334.26 426.45 292.42 395.90 250.65 365.26 C 209.88 394.02 169.18 422.88 128.46 451.73 C 142.78 403.58 157.38 355.52 171.85 307.42 C 131.56 277.59 91.20 247.85 50.92 218.01 C 100.66 217.85 150.40 217.71 200.14 217.61 Z" />
<path fill="#33494e" d=" M 459.34 221.90 C 475.68 230.58 492.08 239.18 508.33 248.03 C 468.76 276.68 429.34 305.54 389.69 334.06 C 373.33 326.16 357.01 318.18 340.70 310.19 C 380.14 280.63 419.82 251.37 459.34 221.90 Z" />
<path fill="#466770" d=" M 340.70 310.19 C 357.01 318.18 373.33 326.16 389.69 334.06 C 405.42 383.97 420.64 434.04 436.16 484.02 C 419.27 475.45 402.39 466.85 385.51 458.25 C 370.43 408.94 355.85 359.48 340.70 310.19 Z" />
<path fill="#33494e" d=" M 135.68 456.76 C 173.80 429.22 212.16 402.01 250.39 374.61 C 255.37 377.46 259.65 381.35 264.35 384.63 C 273.10 391.36 282.19 397.62 290.88 404.42 C 254.70 429.95 218.36 455.25 182.13 480.71 C 166.72 472.58 150.83 465.34 135.68 456.76 Z" />
</svg>
